<mxfile host="65bd71144e">
    <diagram id="sglFQaEM1KskMxZ_ac2A" name="Page-1">
        <mxGraphModel dx="3317" dy="2029" grid="1" gridSize="10" guides="1" tooltips="1" connect="1" arrows="1" fold="1" page="1" pageScale="1" pageWidth="850" pageHeight="1100" math="0" shadow="0">
            <root>
                <mxCell id="0"/>
                <mxCell id="1" parent="0"/>
                <mxCell id="78" value="&lt;font style=&quot;font-size: 36px&quot;&gt;&lt;br&gt;Workplace&lt;/font&gt;" style="rounded=1;whiteSpace=wrap;html=1;dashed=1;fillColor=none;strokeWidth=5;verticalAlign=top;align=center;" vertex="1" parent="1">
                    <mxGeometry x="260" y="190" width="1320" height="1320" as="geometry"/>
                </mxCell>
                <mxCell id="79" style="edgeStyle=none;html=1;exitX=0.479;exitY=1.014;exitDx=0;exitDy=0;fontSize=24;fontColor=#000000;strokeColor=#000000;strokeWidth=5;fontStyle=1;exitPerimeter=0;" edge="1" parent="1" source="80" target="95">
                    <mxGeometry relative="1" as="geometry"/>
                </mxCell>
                <mxCell id="80" value="&lt;font color=&quot;#000000&quot; style=&quot;font-size: 28px;&quot;&gt;Backend&lt;/font&gt;" style="rounded=1;whiteSpace=wrap;html=1;glass=0;fontSize=28;fillColor=#f8cecc;strokeColor=#b85450;verticalAlign=top;" vertex="1" parent="1">
                    <mxGeometry x="520" y="520" width="790" height="610" as="geometry"/>
                </mxCell>
                <mxCell id="81" style="edgeStyle=none;html=1;exitX=0.627;exitY=1.103;exitDx=0;exitDy=0;fontSize=24;fontColor=#000000;strokeWidth=5;strokeColor=#000000;exitPerimeter=0;fontStyle=1" edge="1" parent="1" source="84" target="83">
                    <mxGeometry relative="1" as="geometry">
                        <Array as="points">
                            <mxPoint x="1050" y="480"/>
                        </Array>
                    </mxGeometry>
                </mxCell>
                <mxCell id="82" style="edgeStyle=none;html=1;exitX=0.5;exitY=1;exitDx=0;exitDy=0;entryX=0.75;entryY=0;entryDx=0;entryDy=0;fontSize=24;fontColor=#000000;strokeColor=#000000;strokeWidth=5;fontStyle=1" edge="1" parent="1" source="84" target="92">
                    <mxGeometry relative="1" as="geometry"/>
                </mxCell>
                <mxCell id="83" value="&lt;font style=&quot;font-size: 24px&quot;&gt;&lt;br&gt;Environment (RS)&lt;br&gt;&lt;/font&gt;" style="rounded=1;whiteSpace=wrap;html=1;verticalAlign=top;" vertex="1" parent="1">
                    <mxGeometry x="530" y="570" width="320" height="520" as="geometry"/>
                </mxCell>
                <mxCell id="84" value="&lt;font style=&quot;font-size: 20px&quot;&gt;CLI/Commands&lt;/font&gt;" style="rounded=1;whiteSpace=wrap;html=1;verticalAlign=middle;fillColor=#bac8d3;strokeColor=#23445d;fontColor=#000000;" vertex="1" parent="1">
                    <mxGeometry x="280" y="60" width="1240" height="60" as="geometry"/>
                </mxCell>
                <mxCell id="85" value="&lt;div&gt;&lt;span style=&quot;font-size: 24px&quot;&gt;&lt;br&gt;&lt;/span&gt;&lt;/div&gt;&lt;div&gt;&lt;span style=&quot;font-size: 24px&quot;&gt;Environment (RS)&lt;/span&gt;&lt;/div&gt;" style="rounded=1;whiteSpace=wrap;html=1;align=center;glass=0;horizontal=1;verticalAlign=top;" vertex="1" parent="1">
                    <mxGeometry x="940" y="570" width="320" height="520" as="geometry"/>
                </mxCell>
                <mxCell id="86" value="" style="rounded=1;whiteSpace=wrap;html=1;fontSize=24;fillColor=#FFFFFF;" vertex="1" parent="1">
                    <mxGeometry x="550" y="667" width="280" height="279" as="geometry"/>
                </mxCell>
                <mxCell id="87" value="" style="ellipse;whiteSpace=wrap;html=1;aspect=fixed;strokeWidth=1;fillColor=#dae8fc;strokeColor=#6c8ebf;" vertex="1" parent="1">
                    <mxGeometry x="570" y="680" width="80" height="80" as="geometry"/>
                </mxCell>
                <mxCell id="88" value="" style="ellipse;whiteSpace=wrap;html=1;aspect=fixed;strokeWidth=1;fillColor=#dae8fc;strokeColor=#6c8ebf;" vertex="1" parent="1">
                    <mxGeometry x="720" y="680" width="80" height="80" as="geometry"/>
                </mxCell>
                <mxCell id="89" value="" style="ellipse;whiteSpace=wrap;html=1;aspect=fixed;strokeWidth=1;fillColor=#dae8fc;strokeColor=#6c8ebf;" vertex="1" parent="1">
                    <mxGeometry x="720" y="840" width="80" height="80" as="geometry"/>
                </mxCell>
                <mxCell id="90" value="" style="ellipse;whiteSpace=wrap;html=1;aspect=fixed;strokeWidth=1;fillColor=#dae8fc;strokeColor=#6c8ebf;" vertex="1" parent="1">
                    <mxGeometry x="570" y="840" width="80" height="80" as="geometry"/>
                </mxCell>
                <mxCell id="91" style="edgeStyle=none;html=1;exitX=0.5;exitY=1;exitDx=0;exitDy=0;fontSize=24;fontColor=#000000;strokeColor=#000000;strokeWidth=5;fontStyle=1" edge="1" parent="1" source="92" target="83">
                    <mxGeometry relative="1" as="geometry"/>
                </mxCell>
                <mxCell id="92" value="User Defined Commands" style="rounded=1;whiteSpace=wrap;html=1;glass=0;fontSize=24;fillColor=#e1d5e7;strokeColor=#9673a6;fontColor=#000000;" vertex="1" parent="1">
                    <mxGeometry x="455" y="337.5" width="300" height="130" as="geometry"/>
                </mxCell>
                <mxCell id="93" style="edgeStyle=none;html=1;exitX=0.5;exitY=1;exitDx=0;exitDy=0;entryX=0.4;entryY=0.1;entryDx=0;entryDy=0;entryPerimeter=0;fontSize=24;fontColor=#000000;strokeColor=#000000;strokeWidth=6;fontStyle=1" edge="1" parent="1" source="95" target="96">
                    <mxGeometry relative="1" as="geometry"/>
                </mxCell>
                <mxCell id="94" style="edgeStyle=none;html=1;exitX=0.75;exitY=0;exitDx=0;exitDy=0;entryX=0.578;entryY=1.008;entryDx=0;entryDy=0;entryPerimeter=0;fontSize=24;fontColor=#000000;strokeColor=#000000;strokeWidth=5;" edge="1" parent="1" source="95" target="80">
                    <mxGeometry relative="1" as="geometry"/>
                </mxCell>
                <mxCell id="95" value="Mappers" style="rounded=1;whiteSpace=wrap;html=1;glass=0;fontSize=24;fillColor=#e1d5e7;strokeColor=#9673a6;fontColor=#000000;" vertex="1" parent="1">
                    <mxGeometry x="750" y="1330" width="300" height="130" as="geometry"/>
                </mxCell>
                <mxCell id="96" value="" style="ellipse;shape=cloud;whiteSpace=wrap;html=1;glass=0;fontSize=24;fontColor=#000000;fillColor=#FFFFFF;" vertex="1" parent="1">
                    <mxGeometry x="730" y="1660" width="420" height="290" as="geometry"/>
                </mxCell>
                <mxCell id="97" value="" style="rounded=1;whiteSpace=wrap;html=1;fontSize=24;fillColor=#FFFFFF;fontStyle=0" vertex="1" parent="1">
                    <mxGeometry x="550" y="972" width="280" height="96" as="geometry"/>
                </mxCell>
                <mxCell id="98" value="" style="ellipse;whiteSpace=wrap;html=1;aspect=fixed;strokeWidth=1;fillColor=#dae8fc;strokeColor=#6c8ebf;" vertex="1" parent="1">
                    <mxGeometry x="720" y="980" width="80" height="80" as="geometry"/>
                </mxCell>
                <mxCell id="99" value="" style="ellipse;whiteSpace=wrap;html=1;aspect=fixed;strokeWidth=1;fillColor=#dae8fc;strokeColor=#6c8ebf;" vertex="1" parent="1">
                    <mxGeometry x="570" y="980" width="80" height="80" as="geometry"/>
                </mxCell>
                <mxCell id="100" value="" style="rounded=1;whiteSpace=wrap;html=1;fontSize=24;fillColor=#FFFFFF;" vertex="1" parent="1">
                    <mxGeometry x="960" y="660" width="280" height="279" as="geometry"/>
                </mxCell>
                <mxCell id="101" value="" style="rounded=1;whiteSpace=wrap;html=1;fontSize=24;fillColor=#FFFFFF;fontStyle=0" vertex="1" parent="1">
                    <mxGeometry x="960" y="972" width="280" height="96" as="geometry"/>
                </mxCell>
                <mxCell id="102" value="" style="ellipse;whiteSpace=wrap;html=1;aspect=fixed;strokeWidth=1;fillColor=#dae8fc;strokeColor=#6c8ebf;" vertex="1" parent="1">
                    <mxGeometry x="990" y="680" width="80" height="80" as="geometry"/>
                </mxCell>
                <mxCell id="103" value="" style="ellipse;whiteSpace=wrap;html=1;aspect=fixed;strokeWidth=1;fillColor=#dae8fc;strokeColor=#6c8ebf;" vertex="1" parent="1">
                    <mxGeometry x="1140" y="680" width="80" height="80" as="geometry"/>
                </mxCell>
                <mxCell id="104" value="" style="ellipse;whiteSpace=wrap;html=1;aspect=fixed;strokeWidth=1;fillColor=#dae8fc;strokeColor=#6c8ebf;" vertex="1" parent="1">
                    <mxGeometry x="1140" y="840" width="80" height="80" as="geometry"/>
                </mxCell>
                <mxCell id="105" value="" style="ellipse;whiteSpace=wrap;html=1;aspect=fixed;strokeWidth=1;fillColor=#dae8fc;strokeColor=#6c8ebf;" vertex="1" parent="1">
                    <mxGeometry x="990" y="840" width="80" height="80" as="geometry"/>
                </mxCell>
                <mxCell id="106" value="" style="ellipse;whiteSpace=wrap;html=1;aspect=fixed;strokeWidth=1;fillColor=#dae8fc;strokeColor=#6c8ebf;" vertex="1" parent="1">
                    <mxGeometry x="990" y="980" width="80" height="80" as="geometry"/>
                </mxCell>
                <mxCell id="107" value="" style="ellipse;whiteSpace=wrap;html=1;aspect=fixed;strokeWidth=1;fillColor=#dae8fc;strokeColor=#6c8ebf;" vertex="1" parent="1">
                    <mxGeometry x="1140" y="980" width="80" height="80" as="geometry"/>
                </mxCell>
                <mxCell id="108" value="&lt;b&gt;&lt;font color=&quot;#000000&quot;&gt;File System&lt;/font&gt;&lt;/b&gt;" style="shape=note;whiteSpace=wrap;html=1;backgroundOutline=1;darkOpacity=0.05;fontSize=24;fillColor=#FFFFFF;strokeColor=#FFFFFF;" vertex="1" parent="1">
                    <mxGeometry x="818" y="315" width="194" height="175" as="geometry"/>
                </mxCell>
                <mxCell id="109" value="Project Setting (ws settings)&lt;br&gt;- Backend Config&lt;br&gt;- Environment name mapping to RS&lt;br&gt;-etc" style="shape=internalStorage;whiteSpace=wrap;html=1;backgroundOutline=1;fontSize=24;fontColor=#000000;strokeColor=#000000;fillColor=#FFFFFF;" vertex="1" parent="1">
                    <mxGeometry x="1110" y="290" width="380" height="210" as="geometry"/>
                </mxCell>
                <mxCell id="110" value="" style="group" vertex="1" connectable="0" parent="1">
                    <mxGeometry x="530" y="1150" width="320" height="150" as="geometry"/>
                </mxCell>
                <mxCell id="111" value="" style="ellipse;whiteSpace=wrap;html=1;" vertex="1" parent="110">
                    <mxGeometry width="320" height="150" as="geometry"/>
                </mxCell>
                <mxCell id="112" value="" style="rhombus;whiteSpace=wrap;html=1;fillColor=#FFFFFF;" vertex="1" parent="110">
                    <mxGeometry x="30" y="30" width="80" height="80" as="geometry"/>
                </mxCell>
                <mxCell id="113" value="&lt;font style=&quot;font-size: 24px&quot;&gt;Diffs&lt;/font&gt;" style="text;html=1;strokeColor=none;fillColor=none;align=center;verticalAlign=middle;whiteSpace=wrap;rounded=0;" vertex="1" parent="110">
                    <mxGeometry x="100" y="22.5" width="140" height="95" as="geometry"/>
                </mxCell>
            </root>
        </mxGraphModel>
    </diagram>
</mxfile>